<mxfile host="app.diagrams.net" agent="Mozilla/5.0 (Windows NT 10.0; Win64; x64) AppleWebKit/537.36 (KHTML, like Gecko) Chrome/140.0.0.0 Safari/537.36 Edg/140.0.0.0" version="28.2.1">
  <diagram name="第 1 页" id="oH9CaKQro6RjDwiOcAXF">
    <mxGraphModel dx="1418" dy="794" grid="1" gridSize="10" guides="1" tooltips="1" connect="1" arrows="1" fold="1" page="1" pageScale="1" pageWidth="827" pageHeight="1169" math="0" shadow="0">
      <root>
        <mxCell id="0" />
        <mxCell id="1" parent="0" />
        <mxCell id="xDL-Df86Tu1njdtlWbp1-55" value="" style="rounded=1;whiteSpace=wrap;html=1;fillColor=#e1d5e7;strokeColor=#9673a6;" vertex="1" parent="1">
          <mxGeometry x="110" y="427.5" width="450" height="292.5" as="geometry" />
        </mxCell>
        <mxCell id="xDL-Df86Tu1njdtlWbp1-49" value="" style="rounded=1;whiteSpace=wrap;html=1;fillColor=#fff2cc;strokeColor=#d6b656;" vertex="1" parent="1">
          <mxGeometry x="246" y="601" width="166" height="92" as="geometry" />
        </mxCell>
        <mxCell id="xDL-Df86Tu1njdtlWbp1-53" style="edgeStyle=orthogonalEdgeStyle;rounded=0;orthogonalLoop=1;jettySize=auto;html=1;entryX=1;entryY=0.5;entryDx=0;entryDy=0;" edge="1" parent="1" source="xDL-Df86Tu1njdtlWbp1-46" target="xDL-Df86Tu1njdtlWbp1-51">
          <mxGeometry relative="1" as="geometry">
            <Array as="points">
              <mxPoint x="520" y="513" />
              <mxPoint x="520" y="663" />
            </Array>
          </mxGeometry>
        </mxCell>
        <mxCell id="xDL-Df86Tu1njdtlWbp1-57" value="返回结果&lt;div&gt;到编辑器&lt;/div&gt;" style="edgeLabel;html=1;align=center;verticalAlign=middle;resizable=0;points=[];" vertex="1" connectable="0" parent="xDL-Df86Tu1njdtlWbp1-53">
          <mxGeometry x="-0.2104" relative="1" as="geometry">
            <mxPoint as="offset" />
          </mxGeometry>
        </mxCell>
        <mxCell id="xDL-Df86Tu1njdtlWbp1-46" value="" style="rounded=1;whiteSpace=wrap;html=1;fillColor=#d5e8d4;strokeColor=#82b366;" vertex="1" parent="1">
          <mxGeometry x="178" y="455" width="300" height="115" as="geometry" />
        </mxCell>
        <mxCell id="xDL-Df86Tu1njdtlWbp1-42" value="" style="rounded=1;whiteSpace=wrap;html=1;fillColor=#d5e8d4;strokeColor=#82b366;" vertex="1" parent="1">
          <mxGeometry x="127" y="40" width="700" height="345" as="geometry" />
        </mxCell>
        <mxCell id="xDL-Df86Tu1njdtlWbp1-40" value="" style="rounded=0;whiteSpace=wrap;html=1;fillColor=#fff2cc;strokeColor=#d6b656;" vertex="1" parent="1">
          <mxGeometry x="535" y="275" width="277" height="80" as="geometry" />
        </mxCell>
        <mxCell id="xDL-Df86Tu1njdtlWbp1-11" style="edgeStyle=orthogonalEdgeStyle;rounded=0;orthogonalLoop=1;jettySize=auto;html=1;entryX=0.5;entryY=0;entryDx=0;entryDy=0;" edge="1" parent="1" source="xDL-Df86Tu1njdtlWbp1-1" target="xDL-Df86Tu1njdtlWbp1-10">
          <mxGeometry relative="1" as="geometry" />
        </mxCell>
        <mxCell id="xDL-Df86Tu1njdtlWbp1-1" value="" style="rounded=0;whiteSpace=wrap;html=1;" vertex="1" parent="1">
          <mxGeometry x="640" y="516.75" width="200" height="140" as="geometry" />
        </mxCell>
        <mxCell id="xDL-Df86Tu1njdtlWbp1-2" value="" style="rounded=0;whiteSpace=wrap;html=1;" vertex="1" parent="1">
          <mxGeometry x="654" y="538.75" width="170" height="90" as="geometry" />
        </mxCell>
        <mxCell id="xDL-Df86Tu1njdtlWbp1-3" value="jinja模版" style="rounded=1;whiteSpace=wrap;html=1;" vertex="1" parent="1">
          <mxGeometry x="684" y="563.75" width="110" height="40" as="geometry" />
        </mxCell>
        <mxCell id="xDL-Df86Tu1njdtlWbp1-4" value="&lt;font style=&quot;font-size: 10px;&quot;&gt;Python执行器&lt;/font&gt;" style="text;strokeColor=none;fillColor=none;html=1;align=center;verticalAlign=middle;whiteSpace=wrap;rounded=0;fontSize=16;" vertex="1" parent="1">
          <mxGeometry x="689" y="598.75" width="100" height="30" as="geometry" />
        </mxCell>
        <mxCell id="xDL-Df86Tu1njdtlWbp1-5" value="参数1" style="rounded=1;whiteSpace=wrap;html=1;" vertex="1" parent="1">
          <mxGeometry x="780" y="424.75" width="40" height="43" as="geometry" />
        </mxCell>
        <mxCell id="xDL-Df86Tu1njdtlWbp1-8" style="edgeStyle=orthogonalEdgeStyle;rounded=0;orthogonalLoop=1;jettySize=auto;html=1;entryX=0.25;entryY=0;entryDx=0;entryDy=0;" edge="1" parent="1" source="xDL-Df86Tu1njdtlWbp1-6" target="xDL-Df86Tu1njdtlWbp1-1">
          <mxGeometry relative="1" as="geometry" />
        </mxCell>
        <mxCell id="xDL-Df86Tu1njdtlWbp1-6" value="JSON文本" style="rounded=1;whiteSpace=wrap;html=1;" vertex="1" parent="1">
          <mxGeometry x="630" y="423.75" width="120" height="43" as="geometry" />
        </mxCell>
        <mxCell id="xDL-Df86Tu1njdtlWbp1-7" value="&lt;font style=&quot;font-size: 10px;&quot;&gt;VIM&amp;nbsp;插件&lt;/font&gt;" style="text;strokeColor=none;fillColor=none;html=1;align=center;verticalAlign=middle;whiteSpace=wrap;rounded=0;fontSize=16;" vertex="1" parent="1">
          <mxGeometry x="709" y="626.75" width="60" height="30" as="geometry" />
        </mxCell>
        <mxCell id="xDL-Df86Tu1njdtlWbp1-9" style="edgeStyle=orthogonalEdgeStyle;rounded=0;orthogonalLoop=1;jettySize=auto;html=1;entryX=0.799;entryY=0.003;entryDx=0;entryDy=0;entryPerimeter=0;" edge="1" parent="1" source="xDL-Df86Tu1njdtlWbp1-5" target="xDL-Df86Tu1njdtlWbp1-1">
          <mxGeometry relative="1" as="geometry" />
        </mxCell>
        <mxCell id="xDL-Df86Tu1njdtlWbp1-10" value="编辑器终端" style="rounded=1;whiteSpace=wrap;html=1;" vertex="1" parent="1">
          <mxGeometry x="640" y="683.75" width="200" height="40" as="geometry" />
        </mxCell>
        <mxCell id="xDL-Df86Tu1njdtlWbp1-13" value="xlsx2json" style="rounded=1;whiteSpace=wrap;html=1;fillColor=#e1d5e7;strokeColor=#9673a6;" vertex="1" parent="1">
          <mxGeometry x="265" y="85" width="110" height="40" as="geometry" />
        </mxCell>
        <mxCell id="xDL-Df86Tu1njdtlWbp1-20" style="edgeStyle=orthogonalEdgeStyle;rounded=0;orthogonalLoop=1;jettySize=auto;html=1;entryX=0;entryY=0.5;entryDx=0;entryDy=0;" edge="1" parent="1" source="xDL-Df86Tu1njdtlWbp1-14" target="xDL-Df86Tu1njdtlWbp1-16">
          <mxGeometry relative="1" as="geometry" />
        </mxCell>
        <mxCell id="xDL-Df86Tu1njdtlWbp1-14" value="json2obj" style="rounded=0;whiteSpace=wrap;html=1;fillColor=#dae8fc;strokeColor=#6c8ebf;" vertex="1" parent="1">
          <mxGeometry x="401" y="85" width="120" height="40" as="geometry" />
        </mxCell>
        <mxCell id="xDL-Df86Tu1njdtlWbp1-16" value="模版1" style="rounded=0;whiteSpace=wrap;html=1;fillColor=#dae8fc;strokeColor=#6c8ebf;" vertex="1" parent="1">
          <mxGeometry x="561" y="85" width="120" height="40" as="geometry" />
        </mxCell>
        <mxCell id="xDL-Df86Tu1njdtlWbp1-17" value="excel" style="rounded=1;whiteSpace=wrap;html=1;fillColor=#dae8fc;strokeColor=#6c8ebf;" vertex="1" parent="1">
          <mxGeometry x="161" y="85" width="80" height="40" as="geometry" />
        </mxCell>
        <mxCell id="xDL-Df86Tu1njdtlWbp1-18" value="模版2" style="rounded=0;whiteSpace=wrap;html=1;fillColor=#dae8fc;strokeColor=#6c8ebf;" vertex="1" parent="1">
          <mxGeometry x="561" y="155" width="120" height="40" as="geometry" />
        </mxCell>
        <mxCell id="xDL-Df86Tu1njdtlWbp1-19" value="模版3" style="rounded=0;whiteSpace=wrap;html=1;fillColor=#dae8fc;strokeColor=#6c8ebf;" vertex="1" parent="1">
          <mxGeometry x="561" y="215" width="120" height="40" as="geometry" />
        </mxCell>
        <mxCell id="xDL-Df86Tu1njdtlWbp1-22" style="edgeStyle=orthogonalEdgeStyle;rounded=0;orthogonalLoop=1;jettySize=auto;html=1;entryX=0;entryY=0.5;entryDx=0;entryDy=0;" edge="1" parent="1" source="xDL-Df86Tu1njdtlWbp1-21" target="xDL-Df86Tu1njdtlWbp1-19">
          <mxGeometry relative="1" as="geometry">
            <Array as="points">
              <mxPoint x="540" y="235" />
            </Array>
          </mxGeometry>
        </mxCell>
        <mxCell id="xDL-Df86Tu1njdtlWbp1-21" value="" style="shape=waypoint;sketch=0;fillStyle=solid;size=6;pointerEvents=1;points=[];fillColor=none;resizable=0;rotatable=0;perimeter=centerPerimeter;snapToPoint=1;" vertex="1" parent="1">
          <mxGeometry x="530" y="95" width="20" height="20" as="geometry" />
        </mxCell>
        <mxCell id="xDL-Df86Tu1njdtlWbp1-25" value="" style="endArrow=classic;html=1;rounded=0;entryX=0;entryY=0.5;entryDx=0;entryDy=0;" edge="1" parent="1" target="xDL-Df86Tu1njdtlWbp1-18">
          <mxGeometry width="50" height="50" relative="1" as="geometry">
            <mxPoint x="541" y="175" as="sourcePoint" />
            <mxPoint x="541" y="135" as="targetPoint" />
          </mxGeometry>
        </mxCell>
        <mxCell id="xDL-Df86Tu1njdtlWbp1-27" value="通用xlsx解析库" style="text;html=1;align=center;verticalAlign=middle;resizable=0;points=[];autosize=1;strokeColor=none;fillColor=none;" vertex="1" parent="1">
          <mxGeometry x="265" y="133" width="100" height="30" as="geometry" />
        </mxCell>
        <mxCell id="xDL-Df86Tu1njdtlWbp1-28" value="专用属性封装方法" style="text;html=1;align=center;verticalAlign=middle;resizable=0;points=[];autosize=1;strokeColor=none;fillColor=none;" vertex="1" parent="1">
          <mxGeometry x="401" y="133" width="120" height="30" as="geometry" />
        </mxCell>
        <mxCell id="xDL-Df86Tu1njdtlWbp1-29" value="不同类型文件输出" style="text;html=1;align=center;verticalAlign=middle;resizable=0;points=[];autosize=1;strokeColor=none;fillColor=none;" vertex="1" parent="1">
          <mxGeometry x="561" y="55" width="120" height="30" as="geometry" />
        </mxCell>
        <mxCell id="xDL-Df86Tu1njdtlWbp1-30" value="Register_group[ ]" style="swimlane;fontStyle=1;childLayout=stackLayout;horizontal=1;startSize=26;horizontalStack=0;resizeParent=1;resizeParentMax=0;resizeLast=0;collapsible=1;marginBottom=0;fontSize=10;fillColor=#dae8fc;strokeColor=#6c8ebf;" vertex="1" parent="1">
          <mxGeometry x="401" y="163" width="110" height="130" as="geometry" />
        </mxCell>
        <mxCell id="xDL-Df86Tu1njdtlWbp1-31" value="-reg_name: String" style="text;strokeColor=#6c8ebf;fillColor=#dae8fc;align=left;verticalAlign=top;spacingLeft=4;spacingRight=4;overflow=hidden;rotatable=0;points=[[0,0.5],[1,0.5]];portConstraint=eastwest;fontSize=10;" vertex="1" parent="xDL-Df86Tu1njdtlWbp1-30">
          <mxGeometry y="26" width="110" height="26" as="geometry" />
        </mxCell>
        <mxCell id="xDL-Df86Tu1njdtlWbp1-32" value="-addr: bit [31:0]" style="text;strokeColor=#6c8ebf;fillColor=#dae8fc;align=left;verticalAlign=top;spacingLeft=4;spacingRight=4;overflow=hidden;rotatable=0;points=[[0,0.5],[1,0.5]];portConstraint=eastwest;fontSize=10;" vertex="1" parent="xDL-Df86Tu1njdtlWbp1-30">
          <mxGeometry y="52" width="110" height="26" as="geometry" />
        </mxCell>
        <mxCell id="xDL-Df86Tu1njdtlWbp1-33" value="-ResetValeu: bit [31:0]" style="text;strokeColor=#6c8ebf;fillColor=#dae8fc;align=left;verticalAlign=top;spacingLeft=4;spacingRight=4;overflow=hidden;rotatable=0;points=[[0,0.5],[1,0.5]];portConstraint=eastwest;fontSize=10;" vertex="1" parent="xDL-Df86Tu1njdtlWbp1-30">
          <mxGeometry y="78" width="110" height="26" as="geometry" />
        </mxCell>
        <mxCell id="xDL-Df86Tu1njdtlWbp1-34" value="- Fields[]: objs" style="text;strokeColor=#6c8ebf;fillColor=#dae8fc;align=left;verticalAlign=top;spacingLeft=4;spacingRight=4;overflow=hidden;rotatable=0;points=[[0,0.5],[1,0.5]];portConstraint=eastwest;fontSize=10;" vertex="1" parent="xDL-Df86Tu1njdtlWbp1-30">
          <mxGeometry y="104" width="110" height="26" as="geometry" />
        </mxCell>
        <mxCell id="xDL-Df86Tu1njdtlWbp1-35" value="uart_reg.ralf" style="text;html=1;align=center;verticalAlign=middle;resizable=0;points=[];autosize=1;strokeColor=none;fillColor=none;" vertex="1" parent="1">
          <mxGeometry x="697" y="90" width="90" height="30" as="geometry" />
        </mxCell>
        <mxCell id="xDL-Df86Tu1njdtlWbp1-36" value="uart_addr.c" style="text;html=1;align=center;verticalAlign=middle;resizable=0;points=[];autosize=1;strokeColor=none;fillColor=none;" vertex="1" parent="1">
          <mxGeometry x="702" y="163" width="80" height="30" as="geometry" />
        </mxCell>
        <mxCell id="xDL-Df86Tu1njdtlWbp1-37" value="uart_mask.sv" style="text;html=1;align=center;verticalAlign=middle;resizable=0;points=[];autosize=1;strokeColor=none;fillColor=none;" vertex="1" parent="1">
          <mxGeometry x="697" y="220" width="90" height="30" as="geometry" />
        </mxCell>
        <mxCell id="xDL-Df86Tu1njdtlWbp1-38" value="自定义模版" style="rounded=0;whiteSpace=wrap;html=1;fillColor=#f8cecc;strokeColor=#b85450;" vertex="1" parent="1">
          <mxGeometry x="561" y="285" width="120" height="40" as="geometry" />
        </mxCell>
        <mxCell id="xDL-Df86Tu1njdtlWbp1-39" value="uart_reg_basetask.sv" style="text;html=1;align=center;verticalAlign=middle;resizable=0;points=[];autosize=1;strokeColor=none;fillColor=none;" vertex="1" parent="1">
          <mxGeometry x="672" y="290" width="140" height="30" as="geometry" />
        </mxCell>
        <mxCell id="xDL-Df86Tu1njdtlWbp1-41" value="面向不同场景的二次开发" style="text;html=1;align=center;verticalAlign=middle;resizable=0;points=[];autosize=1;strokeColor=none;fillColor=none;" vertex="1" parent="1">
          <mxGeometry x="652" y="325" width="160" height="30" as="geometry" />
        </mxCell>
        <mxCell id="xDL-Df86Tu1njdtlWbp1-43" value="&lt;ol&gt;&lt;li&gt;支持平台化建设&lt;/li&gt;&lt;li&gt;支持二次开发&lt;/li&gt;&lt;/ol&gt;" style="text;html=1;align=left;verticalAlign=middle;resizable=0;points=[];autosize=1;strokeColor=none;fillColor=none;" vertex="1" parent="1">
          <mxGeometry x="197" y="223" width="150" height="70" as="geometry" />
        </mxCell>
        <mxCell id="xDL-Df86Tu1njdtlWbp1-44" value="json2obj" style="rounded=1;whiteSpace=wrap;html=1;fillColor=#dae8fc;strokeColor=#6c8ebf;" vertex="1" parent="1">
          <mxGeometry x="200" y="478" width="120" height="60" as="geometry" />
        </mxCell>
        <mxCell id="xDL-Df86Tu1njdtlWbp1-45" value="模版" style="rounded=1;whiteSpace=wrap;html=1;fillColor=#dae8fc;strokeColor=#6c8ebf;" vertex="1" parent="1">
          <mxGeometry x="340" y="479" width="120" height="60" as="geometry" />
        </mxCell>
        <mxCell id="xDL-Df86Tu1njdtlWbp1-47" value="Python" style="text;html=1;align=center;verticalAlign=middle;resizable=0;points=[];autosize=1;strokeColor=none;fillColor=none;" vertex="1" parent="1">
          <mxGeometry x="298" y="539" width="60" height="30" as="geometry" />
        </mxCell>
        <mxCell id="xDL-Df86Tu1njdtlWbp1-48" value="JSON文本" style="rounded=1;whiteSpace=wrap;html=1;fillColor=#f5f5f5;fontColor=#333333;strokeColor=#666666;" vertex="1" parent="1">
          <mxGeometry x="272" y="624.5" width="110" height="22" as="geometry" />
        </mxCell>
        <mxCell id="xDL-Df86Tu1njdtlWbp1-51" value="格式化代码" style="rounded=1;whiteSpace=wrap;html=1;fillColor=#dae8fc;strokeColor=#6c8ebf;" vertex="1" parent="1">
          <mxGeometry x="272" y="651.5" width="110" height="22" as="geometry" />
        </mxCell>
        <mxCell id="xDL-Df86Tu1njdtlWbp1-52" style="edgeStyle=orthogonalEdgeStyle;rounded=0;orthogonalLoop=1;jettySize=auto;html=1;entryX=-0.001;entryY=0.454;entryDx=0;entryDy=0;entryPerimeter=0;" edge="1" parent="1" source="xDL-Df86Tu1njdtlWbp1-48" target="xDL-Df86Tu1njdtlWbp1-46">
          <mxGeometry relative="1" as="geometry">
            <Array as="points">
              <mxPoint x="160" y="635" />
              <mxPoint x="160" y="507" />
            </Array>
          </mxGeometry>
        </mxCell>
        <mxCell id="xDL-Df86Tu1njdtlWbp1-56" value="调用python" style="edgeLabel;html=1;align=center;verticalAlign=middle;resizable=0;points=[];" vertex="1" connectable="0" parent="xDL-Df86Tu1njdtlWbp1-52">
          <mxGeometry x="0.19" relative="1" as="geometry">
            <mxPoint as="offset" />
          </mxGeometry>
        </mxCell>
        <mxCell id="xDL-Df86Tu1njdtlWbp1-54" value="screen" style="text;html=1;align=center;verticalAlign=middle;resizable=0;points=[];autosize=1;strokeColor=none;fillColor=none;" vertex="1" parent="1">
          <mxGeometry x="357" y="666" width="60" height="30" as="geometry" />
        </mxCell>
        <mxCell id="xDL-Df86Tu1njdtlWbp1-58" value="GIVM环境" style="text;html=1;align=center;verticalAlign=middle;resizable=0;points=[];autosize=1;strokeColor=none;fillColor=none;" vertex="1" parent="1">
          <mxGeometry x="463" y="680" width="80" height="30" as="geometry" />
        </mxCell>
        <mxCell id="xDL-Df86Tu1njdtlWbp1-59" value="跨编程语言的二次开发示例" style="text;html=1;align=center;verticalAlign=middle;resizable=0;points=[];autosize=1;strokeColor=none;fillColor=none;" vertex="1" parent="1">
          <mxGeometry x="425" y="730" width="170" height="30" as="geometry" />
        </mxCell>
      </root>
    </mxGraphModel>
  </diagram>
</mxfile>
